<svg width="76" height="77" viewBox="0 0 76 77" fill="none" xmlns="http://www.w3.org/2000/svg">
<circle cx="37.8456" cy="38.4467" r="37.8456" fill="white"/>
<path d="M37.856 43.4467C37.006 43.4467 36.146 43.2267 35.476 42.7967L29.456 38.8667C28.336 38.1367 27.666 36.9067 27.666 35.5667C27.666 34.2267 28.336 32.9967 29.456 32.2667L35.486 28.3467C36.826 27.4767 38.916 27.4767 40.246 28.3567L46.236 32.2867C47.346 33.0167 48.016 34.2467 48.016 35.5767C48.016 36.9067 47.346 38.1367 46.236 38.8667L40.246 42.7967C39.576 43.2367 38.716 43.4467 37.856 43.4467ZM37.856 29.1967C37.286 29.1967 36.716 29.3267 36.306 29.6067L30.286 33.5267C29.586 33.9867 29.176 34.7267 29.176 35.5667C29.176 36.4067 29.576 37.1467 30.286 37.6067L36.306 41.5367C37.136 42.0767 38.596 42.0767 39.426 41.5367L45.416 37.6067C46.116 37.1467 46.516 36.4067 46.516 35.5667C46.516 34.7267 46.116 33.9867 45.416 33.5267L39.426 29.5967C39.006 29.3367 38.436 29.1967 37.856 29.1967Z" fill="#AA468F"/>
<path d="M37.8459 49.1966C37.4059 49.1966 36.9559 49.1366 36.5959 49.0166L33.4059 47.9566C31.8959 47.4566 30.7059 45.8066 30.7159 44.2166L30.7259 39.5266C30.7259 39.1166 31.0659 38.7766 31.4759 38.7766C31.8859 38.7766 32.2259 39.1166 32.2259 39.5266L32.2159 44.2166C32.2159 45.1566 32.9959 46.2366 33.8859 46.5366L37.0759 47.5966C37.4759 47.7266 38.2159 47.7266 38.6159 47.5966L41.8059 46.5366C42.6959 46.2366 43.4759 45.1566 43.4759 44.2266V39.5866C43.4759 39.1766 43.8159 38.8366 44.2259 38.8366C44.6359 38.8366 44.9759 39.1766 44.9759 39.5866V44.2266C44.9759 45.8166 43.7959 47.4566 42.2859 47.9666L39.0959 49.0266C38.7359 49.1366 38.2859 49.1966 37.8459 49.1966Z" fill="#AA468F"/>
<path d="M47.2461 42.1967C46.8361 42.1967 46.4961 41.8567 46.4961 41.4467V35.4467C46.4961 35.0367 46.8361 34.6967 47.2461 34.6967C47.6561 34.6967 47.9961 35.0367 47.9961 35.4467V41.4467C47.9961 41.8567 47.6561 42.1967 47.2461 42.1967Z" fill="#AA468F"/>
</svg>
